<mxfile host="65bd71144e" pages="2">
    <diagram id="bSsPgsvvMrai05UD9yOp" name="Page-1">
        <mxGraphModel dx="722" dy="438" grid="1" gridSize="10" guides="1" tooltips="1" connect="1" arrows="1" fold="1" page="1" pageScale="1" pageWidth="850" pageHeight="1100" math="0" shadow="0">
            <root>
                <mxCell id="0"/>
                <mxCell id="1" parent="0"/>
                <mxCell id="2" value="" style="rounded=0;whiteSpace=wrap;html=1;fontSize=14;" parent="1" vertex="1">
                    <mxGeometry x="670" y="250" width="120" height="80" as="geometry"/>
                </mxCell>
                <mxCell id="4" value="" style="rounded=0;whiteSpace=wrap;html=1;align=left;verticalAlign=top;fontSize=14;" parent="1" vertex="1">
                    <mxGeometry x="670" y="450" width="120" height="130" as="geometry"/>
                </mxCell>
                <mxCell id="5" value="" style="rounded=0;whiteSpace=wrap;html=1;align=left;verticalAlign=top;fontSize=14;" parent="1" vertex="1">
                    <mxGeometry x="670" y="720" width="120" height="180" as="geometry"/>
                </mxCell>
                <mxCell id="6" value="" style="rounded=0;whiteSpace=wrap;html=1;fontSize=14;" parent="1" vertex="1">
                    <mxGeometry x="1120" y="470" width="120" height="100" as="geometry"/>
                </mxCell>
                <mxCell id="7" value="" style="rounded=0;whiteSpace=wrap;html=1;fontSize=14;" parent="1" vertex="1">
                    <mxGeometry x="900" y="470" width="120" height="100" as="geometry"/>
                </mxCell>
                <mxCell id="8" value="" style="rounded=0;whiteSpace=wrap;html=1;fontSize=14;" parent="1" vertex="1">
                    <mxGeometry x="470" y="610" width="120" height="100" as="geometry"/>
                </mxCell>
                <mxCell id="11" value="Event&amp;nbsp;" style="text;html=1;strokeColor=none;fillColor=none;align=center;verticalAlign=middle;whiteSpace=wrap;rounded=0;fontSize=14;" parent="1" vertex="1">
                    <mxGeometry x="670" y="230" width="120" height="20" as="geometry"/>
                </mxCell>
                <mxCell id="12" value="&lt;ul style=&quot;font-size: 14px;&quot;&gt;&lt;li style=&quot;font-size: 14px;&quot;&gt;&lt;b style=&quot;font-size: 14px;&quot;&gt;id&lt;/b&gt;&lt;/li&gt;&lt;li style=&quot;font-size: 14px;&quot;&gt;&lt;span style=&quot;font-size: 14px;&quot;&gt;titel&lt;/span&gt;&lt;/li&gt;&lt;li style=&quot;font-size: 14px;&quot;&gt;&lt;span style=&quot;font-size: 14px;&quot;&gt;datum&lt;/span&gt;&lt;/li&gt;&lt;li style=&quot;font-size: 14px;&quot;&gt;&lt;span style=&quot;font-size: 14px;&quot;&gt;beschrijving&lt;/span&gt;&lt;/li&gt;&lt;/ul&gt;" style="text;html=1;strokeColor=none;fillColor=none;align=left;verticalAlign=top;whiteSpace=wrap;rounded=0;fontSize=14;" parent="1" vertex="1">
                    <mxGeometry x="650" y="240" width="120" height="80" as="geometry"/>
                </mxCell>
                <mxCell id="14" value="Recept" style="text;html=1;strokeColor=none;fillColor=none;align=center;verticalAlign=middle;whiteSpace=wrap;rounded=0;fontSize=14;" parent="1" vertex="1">
                    <mxGeometry x="670" y="430" width="120" height="20" as="geometry"/>
                </mxCell>
                <mxCell id="15" value="Ingredient" style="text;html=1;strokeColor=none;fillColor=none;align=center;verticalAlign=middle;whiteSpace=wrap;rounded=0;fontSize=14;" parent="1" vertex="1">
                    <mxGeometry x="670" y="700" width="120" height="20" as="geometry"/>
                </mxCell>
                <mxCell id="16" value="&lt;div style=&quot;font-size: 14px;&quot;&gt;&lt;ul style=&quot;font-size: 14px;&quot;&gt;&lt;li style=&quot;font-size: 14px;&quot;&gt;&lt;font style=&quot;font-size: 14px;&quot;&gt;&lt;b style=&quot;font-size: 14px;&quot;&gt;id&lt;/b&gt;&lt;/font&gt;&lt;/li&gt;&lt;li style=&quot;font-size: 14px;&quot;&gt;&lt;font style=&quot;font-size: 14px;&quot;&gt;eenheid hoeveelheid&lt;/font&gt;&lt;/li&gt;&lt;li style=&quot;font-size: 14px;&quot;&gt;&lt;font style=&quot;font-size: 14px;&quot;&gt;hoeveelheid verpakking&lt;/font&gt;&lt;/li&gt;&lt;li style=&quot;font-size: 14px;&quot;&gt;&lt;font style=&quot;font-size: 14px;&quot;&gt;beschrijving&lt;/font&gt;&lt;/li&gt;&lt;li style=&quot;font-size: 14px;&quot;&gt;&lt;font style=&quot;font-size: 14px;&quot;&gt;naam&lt;/font&gt;&lt;/li&gt;&lt;li style=&quot;font-size: 14px;&quot;&gt;&lt;font style=&quot;font-size: 14px;&quot;&gt;foto&lt;/font&gt;&lt;/li&gt;&lt;li style=&quot;font-size: 14px;&quot;&gt;&lt;font style=&quot;font-size: 14px;&quot;&gt;prijs&lt;/font&gt;&lt;/li&gt;&lt;li style=&quot;font-size: 14px;&quot;&gt;&lt;font style=&quot;font-size: 14px;&quot;&gt;calorieen&lt;/font&gt;&lt;/li&gt;&lt;/ul&gt;&lt;/div&gt;" style="text;html=1;strokeColor=none;fillColor=none;align=left;verticalAlign=top;whiteSpace=wrap;rounded=0;fontSize=14;" parent="1" vertex="1">
                    <mxGeometry x="650" y="710" width="130" height="190" as="geometry"/>
                </mxCell>
                <mxCell id="17" value="&lt;ul style=&quot;font-size: 14px;&quot;&gt;&lt;li style=&quot;font-size: 14px;&quot;&gt;&lt;b style=&quot;font-size: 14px;&quot;&gt;id&lt;/b&gt;&lt;/li&gt;&lt;li style=&quot;font-size: 14px;&quot;&gt;&lt;span style=&quot;font-size: 14px;&quot;&gt;titel&lt;/span&gt;&lt;/li&gt;&lt;li style=&quot;font-size: 14px;&quot;&gt;&lt;span style=&quot;font-size: 14px;&quot;&gt;beschrijving&lt;/span&gt;&lt;/li&gt;&lt;li style=&quot;font-size: 14px;&quot;&gt;&lt;span style=&quot;font-size: 14px;&quot;&gt;type&lt;/span&gt;&lt;/li&gt;&lt;li style=&quot;font-size: 14px;&quot;&gt;&lt;span style=&quot;font-size: 14px;&quot;&gt;keuken&lt;/span&gt;&lt;/li&gt;&lt;li style=&quot;font-size: 14px;&quot;&gt;&lt;span style=&quot;font-size: 14px;&quot;&gt;uploader_id&lt;/span&gt;&lt;/li&gt;&lt;li style=&quot;font-size: 14px;&quot;&gt;&lt;span style=&quot;font-size: 14px;&quot;&gt;datum&lt;/span&gt;&lt;/li&gt;&lt;/ul&gt;" style="text;html=1;strokeColor=none;fillColor=none;align=left;verticalAlign=top;whiteSpace=wrap;rounded=0;fontSize=14;" parent="1" vertex="1">
                    <mxGeometry x="650" y="440" width="120" height="140" as="geometry"/>
                </mxCell>
                <mxCell id="19" value="User" style="text;html=1;strokeColor=none;fillColor=none;align=center;verticalAlign=middle;whiteSpace=wrap;rounded=0;fontSize=14;" parent="1" vertex="1">
                    <mxGeometry x="1120" y="450" width="120" height="20" as="geometry"/>
                </mxCell>
                <mxCell id="22" value="&lt;ul style=&quot;font-size: 14px;&quot;&gt;&lt;li style=&quot;font-size: 14px;&quot;&gt;&lt;b style=&quot;font-size: 14px;&quot;&gt;id&lt;/b&gt;&lt;/li&gt;&lt;li style=&quot;font-size: 14px;&quot;&gt;naam&amp;nbsp;&lt;/li&gt;&lt;li style=&quot;font-size: 14px;&quot;&gt;foto&lt;/li&gt;&lt;li style=&quot;font-size: 14px;&quot;&gt;email&lt;/li&gt;&lt;li style=&quot;font-size: 14px;&quot;&gt;wachtwoord&lt;/li&gt;&lt;/ul&gt;" style="text;html=1;strokeColor=none;fillColor=none;align=left;verticalAlign=top;whiteSpace=wrap;rounded=0;fontSize=14;" parent="1" vertex="1">
                    <mxGeometry x="1100" y="460" width="110" height="110" as="geometry"/>
                </mxCell>
                <mxCell id="24" value="User-Recept Relatie" style="text;html=1;strokeColor=none;fillColor=none;align=center;verticalAlign=middle;whiteSpace=wrap;rounded=0;fontSize=14;" parent="1" vertex="1">
                    <mxGeometry x="900" y="440" width="120" height="20" as="geometry"/>
                </mxCell>
                <mxCell id="25" value="&lt;ul style=&quot;font-size: 14px&quot;&gt;&lt;li style=&quot;font-size: 14px&quot;&gt;&lt;b style=&quot;font-size: 14px&quot;&gt;id&lt;/b&gt;&lt;/li&gt;&lt;li style=&quot;font-size: 14px&quot;&gt;&lt;b style=&quot;font-size: 14px&quot;&gt;&lt;u&gt;user_id&lt;/u&gt;&lt;/b&gt;&lt;/li&gt;&lt;li style=&quot;font-size: 14px&quot;&gt;&lt;b style=&quot;font-size: 14px&quot;&gt;&lt;u&gt;recept_id&lt;/u&gt;&lt;/b&gt;&lt;/li&gt;&lt;li style=&quot;font-size: 14px&quot;&gt;rating&lt;/li&gt;&lt;li style=&quot;font-size: 14px&quot;&gt;favoriet&lt;/li&gt;&lt;/ul&gt;" style="text;html=1;strokeColor=none;fillColor=none;align=left;verticalAlign=top;whiteSpace=wrap;rounded=0;fontSize=14;" parent="1" vertex="1">
                    <mxGeometry x="880" y="460" width="120" height="110" as="geometry"/>
                </mxCell>
                <mxCell id="27" value="Ingredient-Recept Relatie" style="text;html=1;strokeColor=none;fillColor=none;align=center;verticalAlign=middle;whiteSpace=wrap;rounded=0;fontSize=14;" parent="1" vertex="1">
                    <mxGeometry x="470" y="580" width="130" height="20" as="geometry"/>
                </mxCell>
                <mxCell id="28" value="&lt;ul style=&quot;font-size: 14px&quot;&gt;&lt;li style=&quot;font-size: 14px&quot;&gt;&lt;b style=&quot;font-size: 14px&quot;&gt;id&lt;/b&gt;&lt;/li&gt;&lt;li style=&quot;font-size: 14px&quot;&gt;&lt;b style=&quot;font-size: 14px&quot;&gt;&lt;u&gt;ingredient_id&lt;/u&gt;&lt;/b&gt;&lt;/li&gt;&lt;li style=&quot;font-size: 14px&quot;&gt;&lt;b style=&quot;font-size: 14px&quot;&gt;&lt;u&gt;recept_id&lt;/u&gt;&lt;/b&gt;&lt;/li&gt;&lt;li style=&quot;font-size: 14px&quot;&gt;hoeveelheid recept&lt;/li&gt;&lt;/ul&gt;" style="text;html=1;strokeColor=none;fillColor=none;align=left;verticalAlign=top;whiteSpace=wrap;rounded=0;fontSize=14;" parent="1" vertex="1">
                    <mxGeometry x="450" y="600" width="120" height="110" as="geometry"/>
                </mxCell>
                <mxCell id="29" value="" style="rounded=0;whiteSpace=wrap;html=1;fontSize=14;" parent="1" vertex="1">
                    <mxGeometry x="470" y="330" width="120" height="80" as="geometry"/>
                </mxCell>
                <mxCell id="30" value="Recept Stap" style="text;html=1;strokeColor=none;fillColor=none;align=center;verticalAlign=middle;whiteSpace=wrap;rounded=0;fontSize=14;" parent="1" vertex="1">
                    <mxGeometry x="470" y="310" width="120" height="20" as="geometry"/>
                </mxCell>
                <mxCell id="31" value="&lt;ul style=&quot;font-size: 14px&quot;&gt;&lt;li style=&quot;font-size: 14px&quot;&gt;&lt;b style=&quot;font-size: 14px&quot;&gt;id&lt;/b&gt;&lt;/li&gt;&lt;li style=&quot;font-size: 14px&quot;&gt;&lt;b style=&quot;font-size: 14px&quot;&gt;&lt;u&gt;recept_id&lt;/u&gt;&lt;/b&gt;&lt;/li&gt;&lt;li style=&quot;font-size: 14px&quot;&gt;&lt;span style=&quot;font-size: 14px&quot;&gt;nummer&lt;/span&gt;&lt;/li&gt;&lt;li style=&quot;font-size: 14px&quot;&gt;beschrijving&lt;/li&gt;&lt;/ul&gt;" style="text;html=1;strokeColor=none;fillColor=none;align=left;verticalAlign=top;whiteSpace=wrap;rounded=0;fontSize=14;" parent="1" vertex="1">
                    <mxGeometry x="450" y="320" width="120" height="90" as="geometry"/>
                </mxCell>
                <mxCell id="32" value="" style="rounded=0;whiteSpace=wrap;html=1;fontSize=14;" parent="1" vertex="1">
                    <mxGeometry x="900" y="610" width="120" height="100" as="geometry"/>
                </mxCell>
                <mxCell id="33" value="Opmerking" style="text;html=1;strokeColor=none;fillColor=none;align=center;verticalAlign=middle;whiteSpace=wrap;rounded=0;fontSize=14;" parent="1" vertex="1">
                    <mxGeometry x="900" y="590" width="120" height="20" as="geometry"/>
                </mxCell>
                <mxCell id="34" value="&lt;ul style=&quot;font-size: 14px&quot;&gt;&lt;li style=&quot;font-size: 14px&quot;&gt;&lt;b style=&quot;font-size: 14px&quot;&gt;id&lt;/b&gt;&lt;/li&gt;&lt;li style=&quot;font-size: 14px&quot;&gt;&lt;b style=&quot;font-size: 14px&quot;&gt;&lt;u&gt;recept_id&lt;/u&gt;&lt;/b&gt;&lt;/li&gt;&lt;li style=&quot;font-size: 14px&quot;&gt;&lt;b style=&quot;font-size: 14px&quot;&gt;&lt;u&gt;user_id&lt;/u&gt;&lt;/b&gt;&lt;/li&gt;&lt;li style=&quot;font-size: 14px&quot;&gt;bericht&lt;/li&gt;&lt;li style=&quot;font-size: 14px&quot;&gt;datum&lt;/li&gt;&lt;/ul&gt;" style="text;html=1;strokeColor=none;fillColor=none;align=left;verticalAlign=top;whiteSpace=wrap;rounded=0;fontSize=14;" parent="1" vertex="1">
                    <mxGeometry x="880" y="600" width="120" height="110" as="geometry"/>
                </mxCell>
                <mxCell id="dVHpm4YaD_FYeAioLJXa-71" value="" style="edgeStyle=entityRelationEdgeStyle;fontSize=12;html=1;endArrow=ERoneToMany;rounded=0;exitX=1.005;exitY=0.458;exitDx=0;exitDy=0;exitPerimeter=0;entryX=0.167;entryY=0.455;entryDx=0;entryDy=0;entryPerimeter=0;" parent="1" source="4" target="25" edge="1">
                    <mxGeometry width="100" height="100" relative="1" as="geometry">
                        <mxPoint x="840" y="580" as="sourcePoint"/>
                        <mxPoint x="810" y="590" as="targetPoint"/>
                    </mxGeometry>
                </mxCell>
                <mxCell id="dVHpm4YaD_FYeAioLJXa-72" value="" style="edgeStyle=entityRelationEdgeStyle;fontSize=12;html=1;endArrow=ERoneToMany;rounded=0;exitX=1.005;exitY=0.697;exitDx=0;exitDy=0;exitPerimeter=0;entryX=0.167;entryY=0.455;entryDx=0;entryDy=0;entryPerimeter=0;" parent="1" source="4" edge="1">
                    <mxGeometry width="100" height="100" relative="1" as="geometry">
                        <mxPoint x="790.0000000000002" y="640" as="sourcePoint"/>
                        <mxPoint x="900.04" y="660.01" as="targetPoint"/>
                    </mxGeometry>
                </mxCell>
                <mxCell id="dVHpm4YaD_FYeAioLJXa-74" value="" style="edgeStyle=entityRelationEdgeStyle;fontSize=12;html=1;endArrow=ERoneToMany;rounded=0;entryX=1.006;entryY=0.399;entryDx=0;entryDy=0;entryPerimeter=0;exitX=0.006;exitY=0.399;exitDx=0;exitDy=0;exitPerimeter=0;" parent="1" source="6" target="7" edge="1">
                    <mxGeometry width="100" height="100" relative="1" as="geometry">
                        <mxPoint x="1270" y="510" as="sourcePoint"/>
                        <mxPoint x="1070" y="500" as="targetPoint"/>
                    </mxGeometry>
                </mxCell>
                <mxCell id="dVHpm4YaD_FYeAioLJXa-75" value="" style="edgeStyle=entityRelationEdgeStyle;fontSize=12;html=1;endArrow=ERoneToMany;rounded=0;entryX=1;entryY=0.5;entryDx=0;entryDy=0;exitX=-0.008;exitY=0.69;exitDx=0;exitDy=0;exitPerimeter=0;" parent="1" source="6" target="32" edge="1">
                    <mxGeometry width="100" height="100" relative="1" as="geometry">
                        <mxPoint x="1100" y="530" as="sourcePoint"/>
                        <mxPoint x="1139.9999999999995" y="640" as="targetPoint"/>
                    </mxGeometry>
                </mxCell>
                <mxCell id="dVHpm4YaD_FYeAioLJXa-76" value="" style="edgeStyle=entityRelationEdgeStyle;fontSize=12;html=1;endArrow=ERoneToMany;rounded=0;entryX=1.008;entryY=0.327;entryDx=0;entryDy=0;exitX=0;exitY=0.697;exitDx=0;exitDy=0;exitPerimeter=0;entryPerimeter=0;" parent="1" source="4" target="8" edge="1">
                    <mxGeometry x="0.0926" y="30" width="100" height="100" relative="1" as="geometry">
                        <mxPoint x="764.8299999999997" y="630.36" as="sourcePoint"/>
                        <mxPoint x="665" y="660" as="targetPoint"/>
                        <mxPoint as="offset"/>
                    </mxGeometry>
                </mxCell>
                <mxCell id="dVHpm4YaD_FYeAioLJXa-77" value="" style="edgeStyle=entityRelationEdgeStyle;fontSize=12;html=1;endArrow=ERoneToMany;rounded=0;entryX=0.997;entryY=0.616;entryDx=0;entryDy=0;exitX=0;exitY=0.5;exitDx=0;exitDy=0;entryPerimeter=0;" parent="1" source="5" target="8" edge="1">
                    <mxGeometry x="0.0926" y="30" width="100" height="100" relative="1" as="geometry">
                        <mxPoint x="590" y="840" as="sourcePoint"/>
                        <mxPoint x="689.98" y="700" as="targetPoint"/>
                        <mxPoint as="offset"/>
                    </mxGeometry>
                </mxCell>
                <mxCell id="dVHpm4YaD_FYeAioLJXa-78" value="" style="edgeStyle=entityRelationEdgeStyle;fontSize=12;html=1;endArrow=ERoneToMany;rounded=0;exitX=0;exitY=0.25;exitDx=0;exitDy=0;" parent="1" source="4" target="29" edge="1">
                    <mxGeometry width="100" height="100" relative="1" as="geometry">
                        <mxPoint x="610" y="490" as="sourcePoint"/>
                        <mxPoint x="500" y="480" as="targetPoint"/>
                    </mxGeometry>
                </mxCell>
            </root>
        </mxGraphModel>
    </diagram>
    <diagram id="yGkhgPfkw5QG9nmMMaqE" name="ASD-v1">
        <mxGraphModel dx="722" dy="438" grid="1" gridSize="10" guides="1" tooltips="1" connect="1" arrows="1" fold="1" page="1" pageScale="1" pageWidth="850" pageHeight="1100" math="0" shadow="0">
            <root>
                <mxCell id="69BrS9RmwNzSeMj6E1C2-0"/>
                <mxCell id="69BrS9RmwNzSeMj6E1C2-1" parent="69BrS9RmwNzSeMj6E1C2-0"/>
                <mxCell id="69BrS9RmwNzSeMj6E1C2-2" value="Gerecht" style="swimlane;childLayout=stackLayout;resizeParent=1;resizeParentMax=0;startSize=20;" parent="69BrS9RmwNzSeMj6E1C2-1" vertex="1">
                    <mxGeometry x="190" y="40" width="790" height="740" as="geometry">
                        <mxRectangle x="180" y="50" width="60" height="20" as="alternateBounds"/>
                    </mxGeometry>
                </mxCell>
                <mxCell id="69BrS9RmwNzSeMj6E1C2-3" value="Controller" style="swimlane;startSize=20;" parent="69BrS9RmwNzSeMj6E1C2-2" vertex="1">
                    <mxGeometry y="20" width="150" height="720" as="geometry"/>
                </mxCell>
                <mxCell id="69BrS9RmwNzSeMj6E1C2-9" value="initialisatie" style="rounded=0;whiteSpace=wrap;html=1;" parent="69BrS9RmwNzSeMj6E1C2-3" vertex="1">
                    <mxGeometry x="30" y="50" width="90" height="20" as="geometry"/>
                </mxCell>
                <mxCell id="69BrS9RmwNzSeMj6E1C2-10" value="" style="endArrow=classic;html=1;exitX=0.5;exitY=1;exitDx=0;exitDy=0;entryX=0.5;entryY=0;entryDx=0;entryDy=0;" parent="69BrS9RmwNzSeMj6E1C2-3" source="69BrS9RmwNzSeMj6E1C2-9" target="69BrS9RmwNzSeMj6E1C2-11" edge="1">
                    <mxGeometry width="50" height="50" relative="1" as="geometry">
                        <mxPoint x="74.33000000000001" y="90" as="sourcePoint"/>
                        <mxPoint x="74" y="160" as="targetPoint"/>
                    </mxGeometry>
                </mxCell>
                <mxCell id="69BrS9RmwNzSeMj6E1C2-11" value="Gerecht ophalen" style="rounded=0;whiteSpace=wrap;html=1;" parent="69BrS9RmwNzSeMj6E1C2-3" vertex="1">
                    <mxGeometry x="22.5" y="170" width="105" height="20" as="geometry"/>
                </mxCell>
                <mxCell id="69BrS9RmwNzSeMj6E1C2-12" value="" style="endArrow=classic;html=1;exitX=0.5;exitY=1;exitDx=0;exitDy=0;entryX=0.5;entryY=0;entryDx=0;entryDy=0;" parent="69BrS9RmwNzSeMj6E1C2-3" source="69BrS9RmwNzSeMj6E1C2-11" target="69BrS9RmwNzSeMj6E1C2-13" edge="1">
                    <mxGeometry width="50" height="50" relative="1" as="geometry">
                        <mxPoint x="74.89999999999992" y="205" as="sourcePoint"/>
                        <mxPoint x="75" y="280" as="targetPoint"/>
                    </mxGeometry>
                </mxCell>
                <mxCell id="69BrS9RmwNzSeMj6E1C2-13" value="Gerecht tonen" style="rounded=0;whiteSpace=wrap;html=1;" parent="69BrS9RmwNzSeMj6E1C2-3" vertex="1">
                    <mxGeometry x="22.5" y="290" width="105" height="20" as="geometry"/>
                </mxCell>
                <mxCell id="69BrS9RmwNzSeMj6E1C2-4" value="Business Logic" style="swimlane;startSize=20;" parent="69BrS9RmwNzSeMj6E1C2-2" vertex="1">
                    <mxGeometry x="150" y="20" width="360" height="720" as="geometry"/>
                </mxCell>
                <mxCell id="69BrS9RmwNzSeMj6E1C2-14" value="Selecteer Gerecht" style="rounded=0;whiteSpace=wrap;html=1;" parent="69BrS9RmwNzSeMj6E1C2-4" vertex="1">
                    <mxGeometry x="32.5" y="170" width="105" height="20" as="geometry"/>
                </mxCell>
                <mxCell id="vbJKLycOTlNOPMyoVTTL-19" value="" style="endArrow=classic;html=1;" parent="69BrS9RmwNzSeMj6E1C2-4" edge="1">
                    <mxGeometry width="50" height="50" relative="1" as="geometry">
                        <mxPoint x="30" y="180" as="sourcePoint"/>
                        <mxPoint x="-20" y="180" as="targetPoint"/>
                    </mxGeometry>
                </mxCell>
                <mxCell id="vbJKLycOTlNOPMyoVTTL-21" value="Ophalen Keuken" style="rounded=0;whiteSpace=wrap;html=1;" parent="69BrS9RmwNzSeMj6E1C2-4" vertex="1">
                    <mxGeometry x="200" y="170" width="105" height="20" as="geometry"/>
                </mxCell>
                <mxCell id="vbJKLycOTlNOPMyoVTTL-34" value="Ophalen User" style="rounded=0;whiteSpace=wrap;html=1;" parent="69BrS9RmwNzSeMj6E1C2-4" vertex="1">
                    <mxGeometry x="200" y="260" width="105" height="20" as="geometry"/>
                </mxCell>
                <mxCell id="vbJKLycOTlNOPMyoVTTL-88" value="Ophalen Ingredienten" style="rounded=0;whiteSpace=wrap;html=1;" parent="69BrS9RmwNzSeMj6E1C2-4" vertex="1">
                    <mxGeometry x="200" y="300" width="105" height="30" as="geometry"/>
                </mxCell>
                <mxCell id="vbJKLycOTlNOPMyoVTTL-161" value="Ophalen Bereidingswijze" style="rounded=0;whiteSpace=wrap;html=1;" parent="69BrS9RmwNzSeMj6E1C2-4" vertex="1">
                    <mxGeometry x="200" y="350" width="105" height="30" as="geometry"/>
                </mxCell>
                <mxCell id="vbJKLycOTlNOPMyoVTTL-162" value="Ophalen Opmerkingen" style="rounded=0;whiteSpace=wrap;html=1;" parent="69BrS9RmwNzSeMj6E1C2-4" vertex="1">
                    <mxGeometry x="200" y="400" width="105" height="30" as="geometry"/>
                </mxCell>
                <mxCell id="vbJKLycOTlNOPMyoVTTL-163" value="Ophalen Waarderingen" style="rounded=0;whiteSpace=wrap;html=1;" parent="69BrS9RmwNzSeMj6E1C2-4" vertex="1">
                    <mxGeometry x="200" y="450" width="105" height="30" as="geometry"/>
                </mxCell>
                <mxCell id="vbJKLycOTlNOPMyoVTTL-164" value="Ophalen Favorieten" style="rounded=0;whiteSpace=wrap;html=1;" parent="69BrS9RmwNzSeMj6E1C2-4" vertex="1">
                    <mxGeometry x="200" y="500" width="105" height="30" as="geometry"/>
                </mxCell>
                <mxCell id="vbJKLycOTlNOPMyoVTTL-169" value="" style="endArrow=classic;html=1;rounded=0;" parent="69BrS9RmwNzSeMj6E1C2-4" edge="1">
                    <mxGeometry width="50" height="50" relative="1" as="geometry">
                        <mxPoint x="140" y="180" as="sourcePoint"/>
                        <mxPoint x="200" y="370" as="targetPoint"/>
                        <Array as="points">
                            <mxPoint x="170" y="370"/>
                        </Array>
                    </mxGeometry>
                </mxCell>
                <mxCell id="vbJKLycOTlNOPMyoVTTL-170" value="" style="endArrow=classic;html=1;rounded=0;" parent="69BrS9RmwNzSeMj6E1C2-4" edge="1">
                    <mxGeometry width="50" height="50" relative="1" as="geometry">
                        <mxPoint x="140" y="180" as="sourcePoint"/>
                        <mxPoint x="200" y="410" as="targetPoint"/>
                        <Array as="points">
                            <mxPoint x="170" y="410"/>
                        </Array>
                    </mxGeometry>
                </mxCell>
                <mxCell id="vbJKLycOTlNOPMyoVTTL-171" value="" style="endArrow=classic;html=1;rounded=0;" parent="69BrS9RmwNzSeMj6E1C2-4" edge="1">
                    <mxGeometry width="50" height="50" relative="1" as="geometry">
                        <mxPoint x="140" y="180" as="sourcePoint"/>
                        <mxPoint x="200" y="460" as="targetPoint"/>
                        <Array as="points">
                            <mxPoint x="170" y="460"/>
                        </Array>
                    </mxGeometry>
                </mxCell>
                <mxCell id="vbJKLycOTlNOPMyoVTTL-172" value="" style="endArrow=classic;html=1;rounded=0;" parent="69BrS9RmwNzSeMj6E1C2-4" edge="1">
                    <mxGeometry width="50" height="50" relative="1" as="geometry">
                        <mxPoint x="140" y="180" as="sourcePoint"/>
                        <mxPoint x="200" y="510" as="targetPoint"/>
                        <Array as="points">
                            <mxPoint x="170" y="510"/>
                        </Array>
                    </mxGeometry>
                </mxCell>
                <mxCell id="vbJKLycOTlNOPMyoVTTL-192" value="Bereken Gerecht gemiddelde waardering" style="rounded=0;whiteSpace=wrap;html=1;" parent="69BrS9RmwNzSeMj6E1C2-4" vertex="1">
                    <mxGeometry x="200" y="556" width="104" height="50" as="geometry"/>
                </mxCell>
                <mxCell id="vbJKLycOTlNOPMyoVTTL-193" value="" style="endArrow=classic;html=1;rounded=0;entryX=0;entryY=0.5;entryDx=0;entryDy=0;exitX=0.5;exitY=1;exitDx=0;exitDy=0;" parent="69BrS9RmwNzSeMj6E1C2-4" source="69BrS9RmwNzSeMj6E1C2-14" target="vbJKLycOTlNOPMyoVTTL-192" edge="1">
                    <mxGeometry width="50" height="50" relative="1" as="geometry">
                        <mxPoint x="110" y="200" as="sourcePoint"/>
                        <mxPoint x="210" y="585" as="targetPoint"/>
                        <Array as="points">
                            <mxPoint x="170" y="580"/>
                        </Array>
                    </mxGeometry>
                </mxCell>
                <mxCell id="vbJKLycOTlNOPMyoVTTL-194" value="Bereken Gerecht totaal calorieën" style="rounded=0;whiteSpace=wrap;html=1;" parent="69BrS9RmwNzSeMj6E1C2-4" vertex="1">
                    <mxGeometry x="200" y="616" width="105" height="30" as="geometry"/>
                </mxCell>
                <mxCell id="vbJKLycOTlNOPMyoVTTL-199" value="" style="endArrow=classic;html=1;rounded=0;exitX=0.5;exitY=1;exitDx=0;exitDy=0;entryX=0;entryY=0.5;entryDx=0;entryDy=0;" parent="69BrS9RmwNzSeMj6E1C2-4" source="69BrS9RmwNzSeMj6E1C2-14" target="vbJKLycOTlNOPMyoVTTL-194" edge="1">
                    <mxGeometry width="50" height="50" relative="1" as="geometry">
                        <mxPoint x="190" y="380" as="sourcePoint"/>
                        <mxPoint x="240" y="330" as="targetPoint"/>
                        <Array as="points">
                            <mxPoint x="170" y="630"/>
                        </Array>
                    </mxGeometry>
                </mxCell>
                <mxCell id="vbJKLycOTlNOPMyoVTTL-218" value="Bereken Gerecht totaal prijs" style="rounded=0;whiteSpace=wrap;html=1;" parent="69BrS9RmwNzSeMj6E1C2-4" vertex="1">
                    <mxGeometry x="199" y="660" width="105" height="30" as="geometry"/>
                </mxCell>
                <mxCell id="vbJKLycOTlNOPMyoVTTL-219" value="" style="endArrow=classic;html=1;rounded=0;exitX=0.5;exitY=1;exitDx=0;exitDy=0;entryX=0;entryY=0.5;entryDx=0;entryDy=0;" parent="69BrS9RmwNzSeMj6E1C2-4" source="69BrS9RmwNzSeMj6E1C2-14" target="vbJKLycOTlNOPMyoVTTL-218" edge="1">
                    <mxGeometry width="50" height="50" relative="1" as="geometry">
                        <mxPoint x="95" y="200" as="sourcePoint"/>
                        <mxPoint x="210" y="641" as="targetPoint"/>
                        <Array as="points">
                            <mxPoint x="170" y="675"/>
                        </Array>
                    </mxGeometry>
                </mxCell>
                <mxCell id="69BrS9RmwNzSeMj6E1C2-5" value="Model" style="swimlane;startSize=20;" parent="69BrS9RmwNzSeMj6E1C2-2" vertex="1">
                    <mxGeometry x="510" y="20" width="280" height="720" as="geometry"/>
                </mxCell>
                <mxCell id="vbJKLycOTlNOPMyoVTTL-14" value="Gerecht" style="swimlane;childLayout=stackLayout;horizontal=1;startSize=30;horizontalStack=0;rounded=1;fontSize=14;fontStyle=0;strokeWidth=2;resizeParent=0;resizeLast=1;shadow=0;dashed=0;align=center;" parent="69BrS9RmwNzSeMj6E1C2-5" vertex="1">
                    <mxGeometry x="60" y="50" width="160" height="170" as="geometry"/>
                </mxCell>
                <mxCell id="vbJKLycOTlNOPMyoVTTL-15" value="id&#10;keuken_id&#10;type_id&#10;user_id&#10;datum_toegevoegd&#10;titel&#10;korte_omschrijving&#10;lange_omschrijving&#10;afbeelding" style="align=left;strokeColor=none;fillColor=none;spacingLeft=4;fontSize=12;verticalAlign=top;resizable=0;rotatable=0;part=1;" parent="vbJKLycOTlNOPMyoVTTL-14" vertex="1">
                    <mxGeometry y="30" width="160" height="140" as="geometry"/>
                </mxCell>
                <mxCell id="vbJKLycOTlNOPMyoVTTL-24" value="Selecteer Keuken-Type" style="rounded=0;whiteSpace=wrap;html=1;" parent="69BrS9RmwNzSeMj6E1C2-5" vertex="1">
                    <mxGeometry x="87.5" y="260" width="112.5" height="30" as="geometry"/>
                </mxCell>
                <mxCell id="vbJKLycOTlNOPMyoVTTL-29" value="Ophalen Type" style="rounded=0;whiteSpace=wrap;html=1;" parent="69BrS9RmwNzSeMj6E1C2-5" vertex="1">
                    <mxGeometry x="-160" y="215" width="105" height="20" as="geometry"/>
                </mxCell>
                <mxCell id="vbJKLycOTlNOPMyoVTTL-30" value="" style="endArrow=classic;html=1;rounded=0;entryX=1;entryY=0.5;entryDx=0;entryDy=0;exitX=0;exitY=0.5;exitDx=0;exitDy=0;" parent="69BrS9RmwNzSeMj6E1C2-5" source="vbJKLycOTlNOPMyoVTTL-24" target="vbJKLycOTlNOPMyoVTTL-29" edge="1">
                    <mxGeometry width="50" height="50" relative="1" as="geometry">
                        <mxPoint x="80" y="270" as="sourcePoint"/>
                        <mxPoint x="-50" y="225" as="targetPoint"/>
                        <Array as="points">
                            <mxPoint x="-10" y="225"/>
                        </Array>
                    </mxGeometry>
                </mxCell>
                <mxCell id="vbJKLycOTlNOPMyoVTTL-33" value="Selecteer User" style="rounded=0;whiteSpace=wrap;html=1;" parent="69BrS9RmwNzSeMj6E1C2-5" vertex="1">
                    <mxGeometry x="87.5" y="310" width="112.5" height="30" as="geometry"/>
                </mxCell>
                <mxCell id="vbJKLycOTlNOPMyoVTTL-87" value="Selecteer Ingredient" style="rounded=0;whiteSpace=wrap;html=1;" parent="69BrS9RmwNzSeMj6E1C2-5" vertex="1">
                    <mxGeometry x="87.5" y="360" width="112.5" height="30" as="geometry"/>
                </mxCell>
                <mxCell id="vbJKLycOTlNOPMyoVTTL-160" value="Selecteer Gerecht-Info" style="rounded=0;whiteSpace=wrap;html=1;" parent="69BrS9RmwNzSeMj6E1C2-5" vertex="1">
                    <mxGeometry x="87.5" y="410" width="112.5" height="30" as="geometry"/>
                </mxCell>
                <mxCell id="vbJKLycOTlNOPMyoVTTL-20" value="" style="endArrow=classic;html=1;exitX=0;exitY=0.25;exitDx=0;exitDy=0;entryX=0.5;entryY=0;entryDx=0;entryDy=0;" parent="69BrS9RmwNzSeMj6E1C2-2" source="vbJKLycOTlNOPMyoVTTL-15" target="69BrS9RmwNzSeMj6E1C2-14" edge="1">
                    <mxGeometry width="50" height="50" relative="1" as="geometry">
                        <mxPoint x="235.32999999999987" y="100" as="sourcePoint"/>
                        <mxPoint x="235" y="180" as="targetPoint"/>
                        <Array as="points">
                            <mxPoint x="235" y="135"/>
                        </Array>
                    </mxGeometry>
                </mxCell>
                <mxCell id="vbJKLycOTlNOPMyoVTTL-173" value="" style="endArrow=classic;html=1;rounded=0;entryX=1;entryY=0.5;entryDx=0;entryDy=0;exitX=0;exitY=0.5;exitDx=0;exitDy=0;" parent="69BrS9RmwNzSeMj6E1C2-2" source="vbJKLycOTlNOPMyoVTTL-87" target="vbJKLycOTlNOPMyoVTTL-88" edge="1">
                    <mxGeometry width="50" height="50" relative="1" as="geometry">
                        <mxPoint x="590" y="350" as="sourcePoint"/>
                        <mxPoint x="465" y="300" as="targetPoint"/>
                        <Array as="points">
                            <mxPoint x="500" y="335"/>
                        </Array>
                    </mxGeometry>
                </mxCell>
                <mxCell id="vbJKLycOTlNOPMyoVTTL-36" value="" style="endArrow=classic;html=1;rounded=0;entryX=1;entryY=0.5;entryDx=0;entryDy=0;exitX=0;exitY=0.5;exitDx=0;exitDy=0;" parent="69BrS9RmwNzSeMj6E1C2-2" source="vbJKLycOTlNOPMyoVTTL-33" target="vbJKLycOTlNOPMyoVTTL-34" edge="1">
                    <mxGeometry width="50" height="50" relative="1" as="geometry">
                        <mxPoint x="590" y="350" as="sourcePoint"/>
                        <mxPoint x="460" y="290" as="targetPoint"/>
                        <Array as="points">
                            <mxPoint x="500" y="290"/>
                        </Array>
                    </mxGeometry>
                </mxCell>
                <mxCell id="vbJKLycOTlNOPMyoVTTL-25" value="" style="endArrow=classic;html=1;rounded=0;entryX=1;entryY=0.5;entryDx=0;entryDy=0;exitX=0;exitY=0.5;exitDx=0;exitDy=0;" parent="69BrS9RmwNzSeMj6E1C2-2" source="vbJKLycOTlNOPMyoVTTL-24" target="vbJKLycOTlNOPMyoVTTL-21" edge="1">
                    <mxGeometry width="50" height="50" relative="1" as="geometry">
                        <mxPoint x="590" y="290" as="sourcePoint"/>
                        <mxPoint x="460" y="200" as="targetPoint"/>
                        <Array as="points">
                            <mxPoint x="500" y="200"/>
                        </Array>
                    </mxGeometry>
                </mxCell>
                <mxCell id="vbJKLycOTlNOPMyoVTTL-165" value="" style="endArrow=classic;html=1;rounded=0;exitX=0;exitY=0.25;exitDx=0;exitDy=0;entryX=1;entryY=0.25;entryDx=0;entryDy=0;" parent="69BrS9RmwNzSeMj6E1C2-2" source="vbJKLycOTlNOPMyoVTTL-160" target="vbJKLycOTlNOPMyoVTTL-161" edge="1">
                    <mxGeometry width="50" height="50" relative="1" as="geometry">
                        <mxPoint x="560" y="400" as="sourcePoint"/>
                        <mxPoint x="460" y="390" as="targetPoint"/>
                        <Array as="points">
                            <mxPoint x="500" y="378"/>
                        </Array>
                    </mxGeometry>
                </mxCell>
                <mxCell id="vbJKLycOTlNOPMyoVTTL-166" value="" style="endArrow=classic;html=1;rounded=0;exitX=0;exitY=0.25;exitDx=0;exitDy=0;entryX=1;entryY=0.5;entryDx=0;entryDy=0;" parent="69BrS9RmwNzSeMj6E1C2-2" source="vbJKLycOTlNOPMyoVTTL-160" target="vbJKLycOTlNOPMyoVTTL-162" edge="1">
                    <mxGeometry width="50" height="50" relative="1" as="geometry">
                        <mxPoint x="580" y="420" as="sourcePoint"/>
                        <mxPoint x="460" y="440" as="targetPoint"/>
                        <Array as="points"/>
                    </mxGeometry>
                </mxCell>
                <mxCell id="vbJKLycOTlNOPMyoVTTL-167" value="" style="endArrow=classic;html=1;rounded=0;exitX=0;exitY=0.25;exitDx=0;exitDy=0;entryX=1;entryY=0.25;entryDx=0;entryDy=0;" parent="69BrS9RmwNzSeMj6E1C2-2" source="vbJKLycOTlNOPMyoVTTL-160" target="vbJKLycOTlNOPMyoVTTL-163" edge="1">
                    <mxGeometry width="50" height="50" relative="1" as="geometry">
                        <mxPoint x="560" y="440" as="sourcePoint"/>
                        <mxPoint x="460" y="490" as="targetPoint"/>
                        <Array as="points">
                            <mxPoint x="500" y="478"/>
                        </Array>
                    </mxGeometry>
                </mxCell>
                <mxCell id="vbJKLycOTlNOPMyoVTTL-168" value="" style="endArrow=classic;html=1;rounded=0;exitX=0;exitY=0.25;exitDx=0;exitDy=0;entryX=1;entryY=0.5;entryDx=0;entryDy=0;" parent="69BrS9RmwNzSeMj6E1C2-2" source="vbJKLycOTlNOPMyoVTTL-160" target="vbJKLycOTlNOPMyoVTTL-164" edge="1">
                    <mxGeometry width="50" height="50" relative="1" as="geometry">
                        <mxPoint x="590" y="450" as="sourcePoint"/>
                        <mxPoint x="460" y="530" as="targetPoint"/>
                        <Array as="points">
                            <mxPoint x="500" y="535"/>
                        </Array>
                    </mxGeometry>
                </mxCell>
                <mxCell id="69BrS9RmwNzSeMj6E1C2-7" value="" style="endArrow=classic;html=1;" parent="69BrS9RmwNzSeMj6E1C2-1" edge="1">
                    <mxGeometry width="50" height="50" relative="1" as="geometry">
                        <mxPoint x="110" y="120" as="sourcePoint"/>
                        <mxPoint x="170" y="120" as="targetPoint"/>
                    </mxGeometry>
                </mxCell>
                <mxCell id="vbJKLycOTlNOPMyoVTTL-23" value="" style="endArrow=classic;html=1;rounded=0;entryX=0;entryY=0.5;entryDx=0;entryDy=0;" parent="69BrS9RmwNzSeMj6E1C2-1" target="vbJKLycOTlNOPMyoVTTL-21" edge="1">
                    <mxGeometry width="50" height="50" relative="1" as="geometry">
                        <mxPoint x="480" y="240" as="sourcePoint"/>
                        <mxPoint x="530" y="240" as="targetPoint"/>
                    </mxGeometry>
                </mxCell>
                <mxCell id="vbJKLycOTlNOPMyoVTTL-32" value="" style="endArrow=classic;html=1;rounded=0;entryX=0;entryY=0.5;entryDx=0;entryDy=0;" parent="69BrS9RmwNzSeMj6E1C2-1" target="vbJKLycOTlNOPMyoVTTL-29" edge="1">
                    <mxGeometry width="50" height="50" relative="1" as="geometry">
                        <mxPoint x="480" y="240" as="sourcePoint"/>
                        <mxPoint x="530" y="280" as="targetPoint"/>
                        <Array as="points">
                            <mxPoint x="510" y="285"/>
                        </Array>
                    </mxGeometry>
                </mxCell>
                <mxCell id="vbJKLycOTlNOPMyoVTTL-35" value="" style="endArrow=classic;html=1;rounded=0;entryX=0;entryY=0.5;entryDx=0;entryDy=0;" parent="69BrS9RmwNzSeMj6E1C2-1" target="vbJKLycOTlNOPMyoVTTL-34" edge="1">
                    <mxGeometry width="50" height="50" relative="1" as="geometry">
                        <mxPoint x="480" y="240" as="sourcePoint"/>
                        <mxPoint x="530" y="330" as="targetPoint"/>
                        <Array as="points">
                            <mxPoint x="510" y="330"/>
                        </Array>
                    </mxGeometry>
                </mxCell>
                <mxCell id="vbJKLycOTlNOPMyoVTTL-62" value="Keuken-Type" style="swimlane;childLayout=stackLayout;resizeParent=1;resizeParentMax=0;startSize=20;" parent="69BrS9RmwNzSeMj6E1C2-1" vertex="1">
                    <mxGeometry x="190" y="1646" width="790" height="390" as="geometry">
                        <mxRectangle x="180" y="50" width="60" height="20" as="alternateBounds"/>
                    </mxGeometry>
                </mxCell>
                <mxCell id="vbJKLycOTlNOPMyoVTTL-63" value="Controller" style="swimlane;startSize=20;" parent="vbJKLycOTlNOPMyoVTTL-62" vertex="1">
                    <mxGeometry y="20" width="150" height="370" as="geometry"/>
                </mxCell>
                <mxCell id="vbJKLycOTlNOPMyoVTTL-69" value="Business Logic" style="swimlane;startSize=20;" parent="vbJKLycOTlNOPMyoVTTL-62" vertex="1">
                    <mxGeometry x="150" y="20" width="360" height="370" as="geometry"/>
                </mxCell>
                <mxCell id="vbJKLycOTlNOPMyoVTTL-70" value="Selecteer Keuken-Type" style="rounded=0;whiteSpace=wrap;html=1;" parent="vbJKLycOTlNOPMyoVTTL-69" vertex="1">
                    <mxGeometry x="32.5" y="170" width="105" height="40" as="geometry"/>
                </mxCell>
                <mxCell id="vbJKLycOTlNOPMyoVTTL-76" value="Model" style="swimlane;startSize=20;" parent="vbJKLycOTlNOPMyoVTTL-62" vertex="1">
                    <mxGeometry x="510" y="20" width="280" height="370" as="geometry"/>
                </mxCell>
                <mxCell id="vbJKLycOTlNOPMyoVTTL-77" value="Keuken-Type" style="swimlane;childLayout=stackLayout;horizontal=1;startSize=30;horizontalStack=0;rounded=1;fontSize=14;fontStyle=0;strokeWidth=2;resizeParent=0;resizeLast=1;shadow=0;dashed=0;align=center;" parent="vbJKLycOTlNOPMyoVTTL-76" vertex="1">
                    <mxGeometry x="60" y="70" width="160" height="90" as="geometry"/>
                </mxCell>
                <mxCell id="vbJKLycOTlNOPMyoVTTL-78" value="id&#10;record_type [K, T]&#10;omschrijving" style="align=left;strokeColor=none;fillColor=none;spacingLeft=4;fontSize=12;verticalAlign=top;resizable=0;rotatable=0;part=1;" parent="vbJKLycOTlNOPMyoVTTL-77" vertex="1">
                    <mxGeometry y="30" width="160" height="60" as="geometry"/>
                </mxCell>
                <mxCell id="vbJKLycOTlNOPMyoVTTL-72" value="" style="endArrow=classic;html=1;exitX=0;exitY=0.25;exitDx=0;exitDy=0;entryX=0.5;entryY=0;entryDx=0;entryDy=0;" parent="vbJKLycOTlNOPMyoVTTL-62" source="vbJKLycOTlNOPMyoVTTL-78" target="vbJKLycOTlNOPMyoVTTL-70" edge="1">
                    <mxGeometry width="50" height="50" relative="1" as="geometry">
                        <mxPoint x="235.32999999999987" y="100" as="sourcePoint"/>
                        <mxPoint x="235" y="180" as="targetPoint"/>
                        <Array as="points">
                            <mxPoint x="235" y="135"/>
                        </Array>
                    </mxGeometry>
                </mxCell>
                <mxCell id="vbJKLycOTlNOPMyoVTTL-90" value="" style="endArrow=classic;html=1;rounded=0;" parent="69BrS9RmwNzSeMj6E1C2-1" edge="1">
                    <mxGeometry width="50" height="50" relative="1" as="geometry">
                        <mxPoint x="480" y="240" as="sourcePoint"/>
                        <mxPoint x="540" y="370" as="targetPoint"/>
                        <Array as="points">
                            <mxPoint x="510" y="370"/>
                        </Array>
                    </mxGeometry>
                </mxCell>
                <mxCell id="vbJKLycOTlNOPMyoVTTL-91" value="Ingredient" style="swimlane;childLayout=stackLayout;resizeParent=1;resizeParentMax=0;startSize=20;" parent="69BrS9RmwNzSeMj6E1C2-1" vertex="1">
                    <mxGeometry x="190" y="821" width="790" height="390" as="geometry">
                        <mxRectangle x="180" y="50" width="60" height="20" as="alternateBounds"/>
                    </mxGeometry>
                </mxCell>
                <mxCell id="vbJKLycOTlNOPMyoVTTL-92" value="Controller" style="swimlane;startSize=20;" parent="vbJKLycOTlNOPMyoVTTL-91" vertex="1">
                    <mxGeometry y="20" width="150" height="370" as="geometry"/>
                </mxCell>
                <mxCell id="vbJKLycOTlNOPMyoVTTL-93" value="Business Logic" style="swimlane;startSize=20;" parent="vbJKLycOTlNOPMyoVTTL-91" vertex="1">
                    <mxGeometry x="150" y="20" width="360" height="370" as="geometry"/>
                </mxCell>
                <mxCell id="vbJKLycOTlNOPMyoVTTL-94" value="Selecteer Ingredient" style="rounded=0;whiteSpace=wrap;html=1;" parent="vbJKLycOTlNOPMyoVTTL-93" vertex="1">
                    <mxGeometry x="32.5" y="170" width="105" height="40" as="geometry"/>
                </mxCell>
                <mxCell id="vbJKLycOTlNOPMyoVTTL-114" value="Ophalen Artikel" style="rounded=0;whiteSpace=wrap;html=1;" parent="vbJKLycOTlNOPMyoVTTL-93" vertex="1">
                    <mxGeometry x="200" y="175" width="110" height="30" as="geometry"/>
                </mxCell>
                <mxCell id="vbJKLycOTlNOPMyoVTTL-115" value="" style="endArrow=classic;html=1;rounded=0;exitX=1;exitY=0.5;exitDx=0;exitDy=0;entryX=0;entryY=0.5;entryDx=0;entryDy=0;" parent="vbJKLycOTlNOPMyoVTTL-93" source="vbJKLycOTlNOPMyoVTTL-94" target="vbJKLycOTlNOPMyoVTTL-114" edge="1">
                    <mxGeometry width="50" height="50" relative="1" as="geometry">
                        <mxPoint x="150" y="190" as="sourcePoint"/>
                        <mxPoint x="190" y="190" as="targetPoint"/>
                    </mxGeometry>
                </mxCell>
                <mxCell id="vbJKLycOTlNOPMyoVTTL-188" value="Bereken Ingredient totaal prijs" style="rounded=0;whiteSpace=wrap;html=1;" parent="vbJKLycOTlNOPMyoVTTL-93" vertex="1">
                    <mxGeometry x="200" y="228" width="110" height="30" as="geometry"/>
                </mxCell>
                <mxCell id="vbJKLycOTlNOPMyoVTTL-189" value="" style="endArrow=classic;html=1;rounded=0;entryX=0;entryY=0.5;entryDx=0;entryDy=0;exitX=1;exitY=0.75;exitDx=0;exitDy=0;" parent="vbJKLycOTlNOPMyoVTTL-93" source="vbJKLycOTlNOPMyoVTTL-94" target="vbJKLycOTlNOPMyoVTTL-188" edge="1">
                    <mxGeometry width="50" height="50" relative="1" as="geometry">
                        <mxPoint x="170" y="218" as="sourcePoint"/>
                        <mxPoint x="200" y="205" as="targetPoint"/>
                        <Array as="points">
                            <mxPoint x="180" y="243"/>
                        </Array>
                    </mxGeometry>
                </mxCell>
                <mxCell id="vbJKLycOTlNOPMyoVTTL-195" value="Bereken Ingredient totaal calorieën" style="rounded=0;whiteSpace=wrap;html=1;" parent="vbJKLycOTlNOPMyoVTTL-93" vertex="1">
                    <mxGeometry x="200" y="278" width="110" height="30" as="geometry"/>
                </mxCell>
                <mxCell id="vbJKLycOTlNOPMyoVTTL-196" value="" style="endArrow=classic;html=1;rounded=0;entryX=0;entryY=0.5;entryDx=0;entryDy=0;exitX=1;exitY=0.75;exitDx=0;exitDy=0;" parent="vbJKLycOTlNOPMyoVTTL-93" source="vbJKLycOTlNOPMyoVTTL-94" target="vbJKLycOTlNOPMyoVTTL-195" edge="1">
                    <mxGeometry width="50" height="50" relative="1" as="geometry">
                        <mxPoint x="130" y="238" as="sourcePoint"/>
                        <mxPoint x="182.5" y="296" as="targetPoint"/>
                        <Array as="points">
                            <mxPoint x="180" y="293"/>
                        </Array>
                    </mxGeometry>
                </mxCell>
                <mxCell id="vbJKLycOTlNOPMyoVTTL-96" value="Model" style="swimlane;startSize=20;" parent="vbJKLycOTlNOPMyoVTTL-91" vertex="1">
                    <mxGeometry x="510" y="20" width="280" height="370" as="geometry"/>
                </mxCell>
                <mxCell id="vbJKLycOTlNOPMyoVTTL-97" value="Ingredient" style="swimlane;childLayout=stackLayout;horizontal=1;startSize=30;horizontalStack=0;rounded=1;fontSize=14;fontStyle=0;strokeWidth=2;resizeParent=0;resizeLast=1;shadow=0;dashed=0;align=center;" parent="vbJKLycOTlNOPMyoVTTL-96" vertex="1">
                    <mxGeometry x="60" y="70" width="160" height="100" as="geometry"/>
                </mxCell>
                <mxCell id="vbJKLycOTlNOPMyoVTTL-98" value="id&#10;gerecht_id&#10;artikel_id&#10;aantal" style="align=left;strokeColor=none;fillColor=none;spacingLeft=4;fontSize=12;verticalAlign=top;resizable=0;rotatable=0;part=1;" parent="vbJKLycOTlNOPMyoVTTL-97" vertex="1">
                    <mxGeometry y="30" width="160" height="70" as="geometry"/>
                </mxCell>
                <mxCell id="vbJKLycOTlNOPMyoVTTL-118" value="Selecteer Artikel" style="rounded=0;whiteSpace=wrap;html=1;" parent="vbJKLycOTlNOPMyoVTTL-96" vertex="1">
                    <mxGeometry x="83.75" y="210" width="112.5" height="30" as="geometry"/>
                </mxCell>
                <mxCell id="vbJKLycOTlNOPMyoVTTL-95" value="" style="endArrow=classic;html=1;startArrow=none;exitX=0;exitY=0.25;exitDx=0;exitDy=0;entryX=0.5;entryY=0;entryDx=0;entryDy=0;" parent="vbJKLycOTlNOPMyoVTTL-91" source="vbJKLycOTlNOPMyoVTTL-98" target="vbJKLycOTlNOPMyoVTTL-94" edge="1">
                    <mxGeometry width="50" height="50" relative="1" as="geometry">
                        <mxPoint x="350" y="130" as="sourcePoint"/>
                        <mxPoint x="235" y="180" as="targetPoint"/>
                        <Array as="points">
                            <mxPoint x="235" y="138"/>
                        </Array>
                    </mxGeometry>
                </mxCell>
                <mxCell id="vbJKLycOTlNOPMyoVTTL-119" value="" style="endArrow=classic;html=1;rounded=0;entryX=1;entryY=0.5;entryDx=0;entryDy=0;exitX=0;exitY=0.5;exitDx=0;exitDy=0;" parent="vbJKLycOTlNOPMyoVTTL-91" source="vbJKLycOTlNOPMyoVTTL-118" target="vbJKLycOTlNOPMyoVTTL-114" edge="1">
                    <mxGeometry width="50" height="50" relative="1" as="geometry">
                        <mxPoint x="590" y="240" as="sourcePoint"/>
                        <mxPoint x="470" y="210" as="targetPoint"/>
                        <Array as="points">
                            <mxPoint x="500" y="210"/>
                        </Array>
                    </mxGeometry>
                </mxCell>
                <mxCell id="vbJKLycOTlNOPMyoVTTL-128" value="Artikel" style="swimlane;childLayout=stackLayout;resizeParent=1;resizeParentMax=0;startSize=20;" parent="69BrS9RmwNzSeMj6E1C2-1" vertex="1">
                    <mxGeometry x="190" y="1232" width="790" height="390" as="geometry">
                        <mxRectangle x="180" y="50" width="60" height="20" as="alternateBounds"/>
                    </mxGeometry>
                </mxCell>
                <mxCell id="vbJKLycOTlNOPMyoVTTL-129" value="Controller" style="swimlane;startSize=20;" parent="vbJKLycOTlNOPMyoVTTL-128" vertex="1">
                    <mxGeometry y="20" width="150" height="370" as="geometry"/>
                </mxCell>
                <mxCell id="vbJKLycOTlNOPMyoVTTL-130" value="Business Logic" style="swimlane;startSize=20;" parent="vbJKLycOTlNOPMyoVTTL-128" vertex="1">
                    <mxGeometry x="150" y="20" width="360" height="370" as="geometry"/>
                </mxCell>
                <mxCell id="vbJKLycOTlNOPMyoVTTL-131" value="Selecteer Artikel" style="rounded=0;whiteSpace=wrap;html=1;" parent="vbJKLycOTlNOPMyoVTTL-130" vertex="1">
                    <mxGeometry x="32.5" y="170" width="105" height="40" as="geometry"/>
                </mxCell>
                <mxCell id="vbJKLycOTlNOPMyoVTTL-133" value="Model" style="swimlane;startSize=20;" parent="vbJKLycOTlNOPMyoVTTL-128" vertex="1">
                    <mxGeometry x="510" y="20" width="280" height="370" as="geometry"/>
                </mxCell>
                <mxCell id="vbJKLycOTlNOPMyoVTTL-134" value="Artikel" style="swimlane;childLayout=stackLayout;horizontal=1;startSize=30;horizontalStack=0;rounded=1;fontSize=14;fontStyle=0;strokeWidth=2;resizeParent=0;resizeLast=1;shadow=0;dashed=0;align=center;" parent="vbJKLycOTlNOPMyoVTTL-133" vertex="1">
                    <mxGeometry x="60" y="70" width="160" height="140" as="geometry"/>
                </mxCell>
                <mxCell id="vbJKLycOTlNOPMyoVTTL-135" value="id&#10;naam&#10;omschrijving&#10;prijs&#10;eenheid&#10;verpakking&#10;calorieën" style="align=left;strokeColor=none;fillColor=none;spacingLeft=4;fontSize=12;verticalAlign=top;resizable=0;rotatable=0;part=1;" parent="vbJKLycOTlNOPMyoVTTL-134" vertex="1">
                    <mxGeometry y="30" width="160" height="110" as="geometry"/>
                </mxCell>
                <mxCell id="vbJKLycOTlNOPMyoVTTL-132" value="" style="endArrow=classic;html=1;exitX=0;exitY=0.25;exitDx=0;exitDy=0;entryX=0.5;entryY=0;entryDx=0;entryDy=0;" parent="vbJKLycOTlNOPMyoVTTL-128" source="vbJKLycOTlNOPMyoVTTL-135" target="vbJKLycOTlNOPMyoVTTL-131" edge="1">
                    <mxGeometry width="50" height="50" relative="1" as="geometry">
                        <mxPoint x="235.32999999999987" y="100" as="sourcePoint"/>
                        <mxPoint x="235" y="180" as="targetPoint"/>
                        <Array as="points">
                            <mxPoint x="235" y="148"/>
                        </Array>
                    </mxGeometry>
                </mxCell>
                <mxCell id="vbJKLycOTlNOPMyoVTTL-140" value="Gerecht-Info" style="swimlane;childLayout=stackLayout;resizeParent=1;resizeParentMax=0;startSize=20;" parent="69BrS9RmwNzSeMj6E1C2-1" vertex="1">
                    <mxGeometry x="190" y="2054" width="790" height="390" as="geometry">
                        <mxRectangle x="180" y="50" width="60" height="20" as="alternateBounds"/>
                    </mxGeometry>
                </mxCell>
                <mxCell id="vbJKLycOTlNOPMyoVTTL-141" value="Controller" style="swimlane;startSize=20;" parent="vbJKLycOTlNOPMyoVTTL-140" vertex="1">
                    <mxGeometry y="20" width="150" height="370" as="geometry"/>
                </mxCell>
                <mxCell id="vbJKLycOTlNOPMyoVTTL-142" value="Business Logic" style="swimlane;startSize=20;" parent="vbJKLycOTlNOPMyoVTTL-140" vertex="1">
                    <mxGeometry x="150" y="20" width="360" height="370" as="geometry"/>
                </mxCell>
                <mxCell id="vbJKLycOTlNOPMyoVTTL-143" value="Selecteer Gerecht-Info" style="rounded=0;whiteSpace=wrap;html=1;" parent="vbJKLycOTlNOPMyoVTTL-142" vertex="1">
                    <mxGeometry x="32.5" y="170" width="105" height="40" as="geometry"/>
                </mxCell>
                <mxCell id="vbJKLycOTlNOPMyoVTTL-145" value="Model" style="swimlane;startSize=20;" parent="vbJKLycOTlNOPMyoVTTL-140" vertex="1">
                    <mxGeometry x="510" y="20" width="280" height="370" as="geometry"/>
                </mxCell>
                <mxCell id="vbJKLycOTlNOPMyoVTTL-146" value="Gerecht-Info" style="swimlane;childLayout=stackLayout;horizontal=1;startSize=30;horizontalStack=0;rounded=1;fontSize=14;fontStyle=0;strokeWidth=2;resizeParent=0;resizeLast=1;shadow=0;dashed=0;align=center;" parent="vbJKLycOTlNOPMyoVTTL-145" vertex="1">
                    <mxGeometry x="60" y="70" width="160" height="140" as="geometry"/>
                </mxCell>
                <mxCell id="vbJKLycOTlNOPMyoVTTL-147" value="id&#10;record-type [O, B, W, F]&#10;gerecht_id&#10;user_id&#10;datum&#10;nummeriekveld&#10;tekstveld" style="align=left;strokeColor=none;fillColor=none;spacingLeft=4;fontSize=12;verticalAlign=top;resizable=0;rotatable=0;part=1;" parent="vbJKLycOTlNOPMyoVTTL-146" vertex="1">
                    <mxGeometry y="30" width="160" height="110" as="geometry"/>
                </mxCell>
                <mxCell id="vbJKLycOTlNOPMyoVTTL-144" value="" style="endArrow=classic;html=1;exitX=0;exitY=0.25;exitDx=0;exitDy=0;entryX=0.5;entryY=0;entryDx=0;entryDy=0;" parent="vbJKLycOTlNOPMyoVTTL-140" source="vbJKLycOTlNOPMyoVTTL-147" target="vbJKLycOTlNOPMyoVTTL-143" edge="1">
                    <mxGeometry width="50" height="50" relative="1" as="geometry">
                        <mxPoint x="235.32999999999987" y="100" as="sourcePoint"/>
                        <mxPoint x="235" y="180" as="targetPoint"/>
                        <Array as="points">
                            <mxPoint x="235" y="150"/>
                        </Array>
                    </mxGeometry>
                </mxCell>
                <mxCell id="vbJKLycOTlNOPMyoVTTL-152" value="User" style="swimlane;childLayout=stackLayout;resizeParent=1;resizeParentMax=0;startSize=20;" parent="69BrS9RmwNzSeMj6E1C2-1" vertex="1">
                    <mxGeometry x="190" y="2465" width="790" height="390" as="geometry">
                        <mxRectangle x="180" y="50" width="60" height="20" as="alternateBounds"/>
                    </mxGeometry>
                </mxCell>
                <mxCell id="vbJKLycOTlNOPMyoVTTL-153" value="Controller" style="swimlane;startSize=20;" parent="vbJKLycOTlNOPMyoVTTL-152" vertex="1">
                    <mxGeometry y="20" width="150" height="370" as="geometry"/>
                </mxCell>
                <mxCell id="vbJKLycOTlNOPMyoVTTL-154" value="Business Logic" style="swimlane;startSize=20;" parent="vbJKLycOTlNOPMyoVTTL-152" vertex="1">
                    <mxGeometry x="150" y="20" width="360" height="370" as="geometry"/>
                </mxCell>
                <mxCell id="vbJKLycOTlNOPMyoVTTL-155" value="Selecteer User" style="rounded=0;whiteSpace=wrap;html=1;" parent="vbJKLycOTlNOPMyoVTTL-154" vertex="1">
                    <mxGeometry x="32.5" y="170" width="105" height="40" as="geometry"/>
                </mxCell>
                <mxCell id="vbJKLycOTlNOPMyoVTTL-157" value="Model" style="swimlane;startSize=20;" parent="vbJKLycOTlNOPMyoVTTL-152" vertex="1">
                    <mxGeometry x="510" y="20" width="280" height="370" as="geometry"/>
                </mxCell>
                <mxCell id="vbJKLycOTlNOPMyoVTTL-158" value="User" style="swimlane;childLayout=stackLayout;horizontal=1;startSize=30;horizontalStack=0;rounded=1;fontSize=14;fontStyle=0;strokeWidth=2;resizeParent=0;resizeLast=1;shadow=0;dashed=0;align=center;" parent="vbJKLycOTlNOPMyoVTTL-157" vertex="1">
                    <mxGeometry x="60" y="70" width="160" height="120" as="geometry"/>
                </mxCell>
                <mxCell id="vbJKLycOTlNOPMyoVTTL-159" value="id&#10;username&#10;password&#10;email&#10;afbeelding" style="align=left;strokeColor=none;fillColor=none;spacingLeft=4;fontSize=12;verticalAlign=top;resizable=0;rotatable=0;part=1;" parent="vbJKLycOTlNOPMyoVTTL-158" vertex="1">
                    <mxGeometry y="30" width="160" height="90" as="geometry"/>
                </mxCell>
                <mxCell id="vbJKLycOTlNOPMyoVTTL-156" value="" style="endArrow=classic;html=1;exitX=0;exitY=0.25;exitDx=0;exitDy=0;entryX=0.5;entryY=0;entryDx=0;entryDy=0;" parent="vbJKLycOTlNOPMyoVTTL-152" source="vbJKLycOTlNOPMyoVTTL-159" target="vbJKLycOTlNOPMyoVTTL-155" edge="1">
                    <mxGeometry width="50" height="50" relative="1" as="geometry">
                        <mxPoint x="235.32999999999987" y="100" as="sourcePoint"/>
                        <mxPoint x="235" y="180" as="targetPoint"/>
                        <Array as="points">
                            <mxPoint x="235" y="143"/>
                        </Array>
                    </mxGeometry>
                </mxCell>
                <mxCell id="vbJKLycOTlNOPMyoVTTL-175" value="Actor" style="shape=umlActor;verticalLabelPosition=bottom;verticalAlign=top;html=1;outlineConnect=0;" parent="69BrS9RmwNzSeMj6E1C2-1" vertex="1">
                    <mxGeometry x="60" y="90" width="30" height="60" as="geometry"/>
                </mxCell>
            </root>
        </mxGraphModel>
    </diagram>
</mxfile>